<svg width="178" height="110" viewBox="0 0 178 110" fill="none" xmlns="http://www.w3.org/2000/svg">
<path fill-rule="evenodd" clip-rule="evenodd" d="M29.6534 58.3529L29.5884 60.5039C28.0199 59.5629 26.315 58.8707 24.5344 58.4519C22.5194 57.9479 20.4495 57.696 18.3724 57.7019C15.5028 57.715 12.7051 58.6013 10.3514 60.2429C7.83117 61.9364 5.76121 64.2182 4.32041 66.8909C2.85468 69.4985 2.08014 72.4376 2.07042 75.4289C2.03693 78.1765 2.78312 80.8773 4.22241 83.2179C5.65126 85.5375 7.6791 87.4289 10.0924 88.6929C12.5793 90.0209 15.3593 90.7044 18.1784 90.6809C20.1088 90.6487 22.0226 90.3188 23.8524 89.7029C25.7222 89.1333 27.5008 88.2992 29.1344 87.2259V88.1379C29.2065 90.4963 28.6313 92.8293 27.4714 94.8839C26.3187 96.9046 24.1994 97.9149 21.1134 97.9149C19.5266 97.9479 17.9677 97.4942 16.6464 96.6149C16.0405 96.2325 15.5408 95.7036 15.1933 95.077C14.8459 94.4504 14.6619 93.7464 14.6584 93.0299L2.59242 89.0529C2.52131 92.6777 3.38579 96.2596 5.10242 99.4529C6.71545 102.412 9.13473 104.853 12.0794 106.493C15.2268 108.208 18.7668 109.073 22.3504 109.003C26.9157 109.003 30.5021 107.884 33.1094 105.646C35.5351 103.669 37.3729 101.065 38.4234 98.1169C39.2731 95.7702 39.7676 93.3097 39.8904 90.8169L40.2814 58.3569L29.6534 58.3529ZM19.7424 80.8429C18.9578 80.8569 18.1798 80.6974 17.464 80.3759C16.7481 80.0544 16.1121 79.5787 15.6014 78.9829C14.4677 77.6759 13.8732 75.9869 13.9384 74.2579C13.8693 72.5381 14.4648 70.8576 15.6014 69.5649C16.138 68.9687 16.7981 68.4966 17.5357 68.1815C18.2733 67.8663 19.0707 67.7156 19.8724 67.7399C20.7073 67.721 21.5373 67.8731 22.3112 68.187C23.0851 68.5009 23.7865 68.9698 24.3724 69.5649C24.9717 70.1609 25.4429 70.8731 25.7569 71.6578C26.0709 72.4425 26.2211 73.283 26.1984 74.1279C26.2104 75.8802 25.5309 77.5665 24.3074 78.8209C23.735 79.4643 23.0314 79.9776 22.244 80.3262C21.4565 80.6748 20.6035 80.8507 19.7424 80.8419V80.8429ZM65.2564 58.2229L65.1914 73.6059V73.5429C65.2689 75.453 64.7319 77.3376 63.6594 78.9199C63.1971 79.5204 62.6143 80.0176 61.9485 80.3795C61.2827 80.7414 60.5486 80.9601 59.7932 81.0215C59.0379 81.0829 58.2781 80.9856 57.5626 80.736C56.847 80.4864 56.1916 80.0899 55.6384 79.5719C54.6791 78.3906 54.2015 76.8905 54.3014 75.3719L54.3664 58.0989H42.3014L42.1014 76.0229C42.0141 81.7563 43.1011 86.1126 45.3624 89.0919C47.6237 92.0713 50.9927 93.5593 55.4694 93.5559C57.349 93.5708 59.2122 93.2048 60.9464 92.4799C62.5491 91.8292 63.978 90.8137 65.1194 89.5139V92.7079H77.5094V58.2229H65.2564ZM100.598 57.9619C99.0674 57.9721 97.5519 58.2706 96.1314 58.8419C94.6595 59.4112 93.3012 60.2389 92.1204 61.2859V58.2859H79.9924V93.0269H92.1214V80.5149C92.2954 76.7343 92.9581 74.0076 94.1094 72.3349C94.6957 71.5016 95.4865 70.8331 96.4057 70.3935C97.3249 69.954 98.3417 69.7582 99.3584 69.8249C100.367 69.7937 101.367 70.016 102.267 70.4714C103.167 70.9269 103.938 71.601 104.51 72.4319L109.01 62.3319C107.945 60.996 106.613 59.8971 105.098 59.1059C103.712 58.3688 102.168 57.9774 100.598 57.9649V57.9619ZM132.681 58.2229L132.616 73.6059V73.5429C132.694 75.453 132.157 77.3376 131.084 78.9199C130.622 79.5203 130.039 80.0173 129.374 80.3791C128.708 80.7409 127.974 80.9595 127.219 81.0209C126.464 81.0823 125.704 80.9851 124.988 80.7356C124.273 80.4861 123.618 80.0897 123.064 79.5719C122.105 78.3906 121.628 76.8904 121.727 75.3719L121.792 58.0989H109.727L109.527 76.0239C109.439 81.7573 110.526 86.1136 112.788 89.0929C115.05 92.0723 118.419 93.5599 122.894 93.5559C124.774 93.5712 126.637 93.2055 128.371 92.4809C129.974 91.8303 131.403 90.8147 132.544 89.5149V92.7089H144.934V58.2229H132.681ZM154.781 55.8229C155.425 55.8348 156.062 55.7015 156.647 55.4329C157.231 55.1644 157.747 54.7676 158.157 54.2719C159.053 53.2368 159.532 51.9055 159.5 50.5369C159.55 49.9333 159.468 49.3261 159.26 48.7574C159.051 48.1888 158.722 47.6723 158.293 47.2441C157.865 46.8158 157.349 46.486 156.78 46.2775C156.211 46.069 155.604 45.9869 155 46.0369C154.351 46.0072 153.702 46.1078 153.092 46.333C152.482 46.5582 151.924 46.9033 151.449 47.3479C151.002 47.7919 150.651 48.3242 150.42 48.9109C150.189 49.4975 150.082 50.1258 150.106 50.7559C150.09 51.4176 150.204 52.0761 150.441 52.6938C150.679 53.3115 151.036 53.8763 151.492 54.3559C151.906 54.8194 152.413 55.1896 152.98 55.442C153.548 55.6944 154.162 55.8232 154.783 55.8199L154.781 55.8229ZM145.595 109.004C149.681 109.004 152.887 107.983 155.213 105.94C157.723 103.576 159.433 100.489 160.104 97.1079C161.129 92.3455 161.578 87.4774 161.441 82.6079L161.311 57.7079L148.335 58.0989L148.205 80.3259V82.2159C148.161 85.3013 148.064 87.6913 147.912 89.3859C147.805 90.914 147.406 92.4074 146.738 93.7859C146.456 94.3745 146.041 94.8896 145.526 95.2911C145.012 95.6925 144.411 95.9694 143.771 96.0999C143.405 96.1695 143.035 96.2129 142.662 96.2299C141.823 96.241 141.009 95.939 140.379 95.3829L136.336 106.529C138.64 108.18 141.726 109.005 145.596 109.006L145.595 109.004ZM170.677 56.2039C171.313 56.2185 171.944 56.0965 172.529 55.8462C173.113 55.5959 173.637 55.2231 174.065 54.7529C174.982 53.7506 175.468 52.429 175.42 51.0719C175.448 50.4749 175.351 49.8787 175.136 49.321C174.921 48.7633 174.592 48.2563 174.171 47.8319C173.734 47.4194 173.218 47.099 172.654 46.8896C172.09 46.6802 171.49 46.5861 170.889 46.6129C169.529 46.5836 168.208 47.0636 167.183 47.9589C166.69 48.3683 166.296 48.8832 166.028 49.4657C165.761 50.0481 165.628 50.6832 165.638 51.3239C165.638 52.1927 165.896 53.042 166.379 53.7639C166.858 54.5074 167.513 55.1215 168.285 55.5519C169.013 55.9733 169.838 56.1977 170.678 56.2029L170.677 56.2039ZM164.701 92.8339H177.286V58.2879H163.654L164.701 92.8339Z" fill="white"/>
<path fill-rule="evenodd" clip-rule="evenodd" d="M24.9712 40.362L13.2632 38.029L11.8142 44.356L18.1142 45.556C17.8743 46.2375 17.3886 46.8049 16.7522 47.147C16.0554 47.5994 15.2827 47.9226 14.4712 48.101C14.1336 48.1701 13.7899 48.2056 13.4452 48.207C12.0825 48.2093 10.7689 47.698 9.76622 46.775C9.06569 46.1894 8.50285 45.4565 8.11776 44.6286C7.73267 43.8007 7.5348 42.8981 7.53822 41.985C7.53113 40.6154 7.97183 39.281 8.79322 38.185C9.55651 37.0916 10.6956 36.3173 11.9932 36.01C12.516 35.8944 13.0498 35.835 13.5852 35.833C14.4563 35.8331 15.3219 35.9705 16.1502 36.24C16.9054 36.4648 17.6 36.8572 18.1822 37.388L21.9312 31.588C20.8505 30.6535 19.5758 29.9704 18.1992 29.588C16.6678 29.127 15.0766 28.8948 13.4772 28.899C12.4918 28.9009 11.5088 28.9957 10.5412 29.182C8.52689 29.6117 6.64599 30.5211 5.05822 31.833C3.48464 33.1332 2.21597 34.7633 1.34194 36.608C0.467907 38.4526 0.00987014 40.4668 0.000224408 42.508C-0.00491333 43.3745 0.0781814 44.2393 0.248224 45.089C0.682938 47.136 1.5981 49.0503 2.91822 50.674C4.22148 52.3009 5.87075 53.6171 7.74622 54.527C9.58301 55.4347 11.6044 55.9066 13.6532 55.906C14.5214 55.9015 15.3867 55.8066 16.2352 55.623C18.0134 55.2529 19.6759 54.4587 21.0812 53.308C22.502 52.1634 23.655 50.7217 24.4592 49.084C25.253 47.5167 25.6707 45.7859 25.6792 44.029C25.6948 42.7684 25.454 41.5177 24.9712 40.353V40.362ZM37.4572 36.827C36.6268 36.8325 35.8048 36.9943 35.0342 37.304C34.2361 37.6127 33.4996 38.0614 32.8592 38.629V37.003H26.2802V55.843H32.8592V49.056C32.8204 47.508 33.1927 45.9773 33.9382 44.62C34.2564 44.1682 34.6853 43.8057 35.1838 43.5674C35.6824 43.3291 36.2338 43.2229 36.7852 43.259C37.332 43.2424 37.8743 43.3631 38.3624 43.6101C38.8505 43.8571 39.2688 44.2226 39.5792 44.673L42.0202 39.194C41.4425 38.4693 40.7197 37.8732 39.8982 37.444C39.1466 37.0443 38.3095 36.8319 37.4582 36.825L37.4572 36.827ZM61.3322 55.844L60.5232 37.074H54.6472V38.594C54.1031 38.0203 53.4302 37.5843 52.6842 37.322C51.8526 37.0124 50.9716 36.8565 50.0842 36.862C48.4557 36.8474 46.854 37.2773 45.4517 38.1055C44.0494 38.9337 42.8996 40.1288 42.1262 41.562C41.3193 43.0474 40.9062 44.7147 40.9262 46.405C40.9092 48.0795 41.3104 49.7317 42.0932 51.212C42.8262 52.6237 43.9103 53.8229 45.2412 54.694C46.5204 55.542 48.0225 55.991 49.5572 55.984C50.545 55.9845 51.5256 55.8172 52.4572 55.489C53.3213 55.2034 54.1249 54.7598 54.8272 54.181L54.8622 55.842H61.3332L61.3322 55.844ZM50.7562 50.153C50.1449 50.1466 49.5487 49.9625 49.0402 49.623C48.4842 49.2677 48.0229 48.7824 47.6962 48.209C47.3673 47.6657 47.1901 47.0441 47.1832 46.409C47.1801 45.915 47.2827 45.426 47.4839 44.9749C47.6852 44.5237 47.9806 44.1208 48.3502 43.793C49.0774 43.0812 50.0566 42.6858 51.0742 42.693C51.5124 42.6815 51.9482 42.762 52.3534 42.9295C52.7585 43.0969 53.124 43.3475 53.4262 43.665C53.7354 43.9861 53.9776 44.3655 54.1385 44.7812C54.2993 45.1969 54.3757 45.6405 54.3632 46.086C54.3648 46.7838 54.1929 47.4711 53.8632 48.086C53.5491 48.6915 53.0867 49.2076 52.5192 49.586C52 49.9486 51.3834 50.1459 50.7502 50.152L50.7562 50.153ZM74.2772 36.614C73.2338 36.6137 72.2004 36.8176 71.2352 37.214C70.1841 37.6052 69.2044 38.1663 68.3352 38.875L68.0872 37.002L62.3222 36.967V57.811H69.3222L69.0042 54.571C70.3507 55.2513 71.8476 55.5795 73.3552 55.525C74.8872 55.5549 76.3881 55.0902 77.6352 54.2C78.8924 53.2771 79.8762 52.031 80.4822 50.594C81.1659 49.0167 81.5094 47.313 81.4902 45.594C81.5827 43.3193 80.8966 41.0811 79.5452 39.249C78.9246 38.4386 78.1274 37.7803 77.2142 37.3241C76.3011 36.8678 75.296 36.6257 74.2752 36.616L74.2772 36.614ZM72.6512 49.764C72.1486 49.7686 71.6502 49.6724 71.1854 49.4811C70.7206 49.2897 70.2989 49.0072 69.9452 48.65C69.5803 48.3158 69.2895 47.9088 69.0914 47.4553C68.8934 47.0018 68.7925 46.5119 68.7952 46.017C68.7839 45.5684 68.8678 45.1225 69.0416 44.7088C69.2154 44.2951 69.475 43.923 69.8032 43.617C70.4862 42.9766 71.3954 42.6335 72.3312 42.663C72.7972 42.6439 73.2618 42.7238 73.6947 42.8974C74.1275 43.071 74.5186 43.3343 74.8422 43.67C75.5005 44.3987 75.8438 45.3581 75.7972 46.339C75.848 47.2569 75.5367 48.1581 74.9302 48.849C74.6368 49.1545 74.2817 49.3941 73.8887 49.552C73.4956 49.71 73.0735 49.7826 72.6502 49.765L72.6512 49.764ZM102.751 55.845L102.68 45.276C102.782 42.9804 102.088 40.72 100.717 38.876C100.099 38.1042 99.3077 37.4879 98.408 37.0767C97.5082 36.6655 96.5247 36.4707 95.5362 36.508C94.3534 36.5139 93.1848 36.7667 92.1052 37.25C91.054 37.6881 90.112 38.3521 89.3462 39.195L89.1692 27.353H82.4492L82.9432 55.702L89.5932 55.808L89.4512 45.379C89.6488 44.6157 90.0988 43.9418 90.7281 43.4668C91.3575 42.9918 92.129 42.7437 92.9172 42.763C93.3541 42.7394 93.7915 42.8022 94.2041 42.9477C94.6168 43.0932 94.9967 43.3186 95.3222 43.611C95.6243 43.9166 95.859 44.2821 96.0113 44.6839C96.1635 45.0857 96.2299 45.515 96.2062 45.944V55.844L102.751 55.845ZM103.851 55.739H110.678V38.074C109.137 38.11 107.596 38.0096 106.072 37.774C105.133 37.6088 104.204 37.3962 103.286 37.137L103.851 55.739ZM121.217 56.092C122.723 56.0679 124.205 55.7078 125.555 55.0382C126.904 54.3685 128.087 53.406 129.017 52.221C129.859 51.1724 130.326 49.8719 130.343 48.527L124.472 47.961C124.223 48.5185 123.809 48.9869 123.287 49.304C122.768 49.6473 122.159 49.8315 121.536 49.834C120.903 49.8283 120.284 49.6446 119.75 49.304C119.182 48.9608 118.702 48.4884 118.35 47.925C118.012 47.4104 117.828 46.8098 117.819 46.194C117.824 45.7399 117.926 45.2922 118.119 44.8807C118.311 44.4692 118.588 44.1035 118.933 43.808C119.606 43.1411 120.515 42.7664 121.462 42.765C122.133 42.7609 122.785 42.9785 123.319 43.384C123.871 43.7928 124.274 44.3698 124.469 45.028L130.411 44.498C130.403 43.0832 129.917 41.7127 129.031 40.609C128.08 39.3821 126.849 38.4005 125.441 37.746C124.038 37.0556 122.495 36.6931 120.931 36.686C119.27 36.6694 117.637 37.1094 116.209 37.958C114.782 38.8045 113.601 40.0104 112.785 41.4555C111.969 42.9006 111.546 44.5344 111.558 46.194C111.551 47.9147 112.003 49.6062 112.867 51.094C113.715 52.59 114.932 53.8438 116.402 54.736C117.846 55.6316 119.513 56.1032 121.212 56.097L121.217 56.092ZM146.542 39.584C145.422 38.6246 144.148 37.8597 142.775 37.321C141.465 36.7927 140.067 36.5168 138.654 36.508C137.309 36.503 135.979 36.7989 134.763 37.374C133.617 37.8891 132.611 38.6709 131.828 39.654C131.145 40.4855 130.759 41.5219 130.733 42.598C130.708 43.6741 131.043 44.7278 131.686 45.591C132.338 46.5034 133.206 47.2403 134.212 47.736C135.247 48.2647 136.393 48.539 137.555 48.536C137.768 48.5406 137.981 48.5289 138.192 48.501C138.752 48.4746 139.313 48.5343 139.855 48.678C139.994 48.7066 140.119 48.7815 140.21 48.8905C140.301 48.9995 140.352 49.1362 140.355 49.278C140.355 49.6314 140.102 49.9314 139.595 50.178C139.012 50.4411 138.377 50.568 137.738 50.549C136.977 50.548 136.223 50.4105 135.51 50.143C134.797 49.8829 134.138 49.4938 133.565 48.995L129.993 53.023C130.911 54.0539 132.063 54.848 133.353 55.338C134.768 55.9153 136.282 56.2095 137.81 56.204C139.32 56.2195 140.813 55.8934 142.178 55.25C143.436 54.674 144.531 53.793 145.362 52.687C146.132 51.6761 146.548 50.4405 146.547 49.17C146.575 48.3959 146.403 47.6278 146.048 46.939C145.694 46.2502 145.169 45.6639 144.523 45.236C142.837 44.2008 140.874 43.7073 138.899 43.822C137.249 43.822 136.423 43.5274 136.423 42.938C136.423 42.608 136.653 42.337 137.113 42.125C137.667 41.8948 138.265 41.7864 138.864 41.807C139.671 41.8157 140.471 41.9528 141.234 42.213C142.215 42.5545 143.163 42.9864 144.064 43.503L146.542 39.584Z" fill="white"/>
<path fill-rule="evenodd" clip-rule="evenodd" d="M103.559 36.007C103.559 36.007 95.044 -1.227 134.273 1C134.273 1 137.667 1.176 139.711 0C139.711 0 139.06 0.782 139.511 5C139.51 5.001 142.963 43.327 103.559 36.007Z" fill="white"/>
</svg>
