<svg width="23" height="23" viewBox="0 0 23 23" fill="none" xmlns="http://www.w3.org/2000/svg">
<path d="M4.87607 13.2949L4.11007 16.1529L1.31007 16.2119C0.463349 14.6351 0.0134792 12.8757 -0.000633924 11.086C-0.014747 9.2962 0.407321 7.52995 1.22907 5.93994L3.72107 6.39694L4.81407 8.87294C4.32318 10.3091 4.34509 11.8711 4.87607 13.2929V13.2949Z" fill="#FBBB00"/>
<path d="M21.8082 8.94482C22.181 10.9061 22.0131 12.932 21.3224 14.8051C20.6316 16.6783 19.4441 18.3282 17.8872 19.5778L14.7482 19.4178L14.3042 16.6448C15.6004 15.8851 16.5962 14.7031 17.1252 13.2968H11.2432V8.94482H21.8092H21.8082Z" fill="#518EF8"/>
<path d="M17.886 19.5779C16.6275 20.5887 15.1619 21.3101 13.5933 21.6909C12.0247 22.0717 10.3915 22.1026 8.8096 21.7815C7.2277 21.4603 5.73586 20.795 4.43994 19.8326C3.14403 18.8702 2.07579 17.6344 1.31104 16.2129L4.87604 13.2949C5.2107 14.1871 5.73623 14.9954 6.41586 15.6633C7.09549 16.3312 7.91282 16.8425 8.81069 17.1616C9.70856 17.4807 10.6653 17.5997 11.614 17.5105C12.5627 17.4213 13.4804 17.1258 14.303 16.6449L17.886 19.5779Z" fill="#28B446"/>
<path d="M18.021 2.53188L14.458 5.44988C13.6232 4.92987 12.6819 4.6048 11.7041 4.49886C10.7263 4.39291 9.73724 4.50882 8.81046 4.83797C7.88367 5.16711 7.04304 5.70101 6.3511 6.39994C5.65917 7.09886 5.13376 7.94483 4.81396 8.87488L1.23096 5.94088C1.98664 4.48153 3.05972 3.21005 4.37132 2.21987C5.68293 1.22969 7.19973 0.545979 8.81027 0.218979C10.4208 -0.108021 12.0842 -0.069999 13.6781 0.33025C15.272 0.7305 16.756 1.4828 18.021 2.53188Z" fill="#F14336"/>
</svg>
