<svg width="29" height="21" viewBox="0 0 29 21" fill="none" xmlns="http://www.w3.org/2000/svg">
<path d="M1.2041 10.744C1.2041 10.744 6.0761 1 14.6041 1C23.1321 1 28.0041 10.744 28.0041 10.744C28.0041 10.744 23.1321 20.488 14.6041 20.488C6.0761 20.488 1.2041 10.744 1.2041 10.744Z" stroke="#A2A2A2" stroke-linecap="round" stroke-linejoin="round"/>
<path d="M18.2562 10.7441C18.2562 11.4668 18.0419 12.1732 17.6404 12.7741C17.2389 13.375 16.6683 13.8434 16.0006 14.1199C15.3329 14.3965 14.5982 14.4689 13.8894 14.3279C13.1806 14.1869 12.5295 13.8389 12.0185 13.3279C11.5075 12.8168 11.1594 12.1658 11.0185 11.4569C10.8775 10.7481 10.9498 10.0134 11.2264 9.34576C11.503 8.67808 11.9713 8.1074 12.5722 7.7059C13.1731 7.30439 13.8796 7.09009 14.6022 7.09009C15.5713 7.09009 16.5008 7.47506 17.186 8.16032C17.8713 8.84558 18.2562 9.77499 18.2562 10.7441Z" stroke="#A2A2A2" stroke-linecap="round" stroke-linejoin="round"/>
</svg>
