<svg width="22" height="21" viewBox="0 0 22 21" fill="none" xmlns="http://www.w3.org/2000/svg">
<path d="M22 3.31407C21.2119 3.71609 20.3592 3.97638 19.481 4.08307C20.3823 3.42605 21.0461 2.49444 21.373 1.42807C20.5188 1.98982 19.5523 2.3584 18.541 2.50807C18.1328 2.03737 17.6289 1.65913 17.063 1.39857C16.497 1.13802 15.882 1.00113 15.259 0.99707C14.0095 1.04499 12.8299 1.58647 11.9791 2.50278C11.1282 3.41908 10.6754 4.63542 10.72 5.88507C10.7206 6.25117 10.7598 6.6162 10.837 6.97408C8.96005 6.88853 7.12514 6.38966 5.46326 5.51308C3.80137 4.6365 2.35348 3.40383 1.22299 1.90308C0.653371 2.9688 0.479045 4.20166 0.730865 5.38353C0.982686 6.5654 1.64443 7.6201 2.599 8.36107C1.89238 8.43899 1.18291 8.24166 0.618011 7.81007C0.56011 8.88777 0.877077 9.95228 1.51511 10.8227C2.15314 11.6932 3.07287 12.3159 4.11801 12.5851C3.51669 12.819 2.86013 12.8722 2.229 12.7381C2.45509 13.6556 2.97261 14.475 3.70392 15.0735C4.43523 15.6719 5.3409 16.017 6.285 16.0571C5.47972 16.8786 4.4872 17.4926 3.39255 17.8463C2.29789 18.2001 1.13376 18.283 0 18.0881C2.1039 19.4884 4.57269 20.2402 7.10001 20.2501C14.422 20.2501 20.109 13.8601 19.8 5.97607C19.8 5.96707 19.8 5.95808 19.8 5.94908C19.8 5.94008 19.8 5.90708 19.8 5.88808C19.8 5.86908 19.8 5.83907 19.8 5.81407C20.6969 5.14037 21.4458 4.28941 22 3.31407Z" fill="#38A1F3"/>
</svg>
