<svg width="26" height="20" viewBox="0 0 26 20" fill="none" xmlns="http://www.w3.org/2000/svg">
<path d="M3.5631 0.562988H22.4361C23.0612 0.564835 23.6601 0.813965 24.1021 1.25596C24.5441 1.69796 24.7933 2.29691 24.7951 2.92199V17.077C24.7933 17.7021 24.5441 18.301 24.1021 18.743C23.6601 19.185 23.0612 19.4341 22.4361 19.436H3.5631C2.93802 19.4341 2.33908 19.185 1.89708 18.743C1.45508 18.301 1.20595 17.7021 1.2041 17.077V2.92199C1.20595 2.29691 1.45508 1.69796 1.89708 1.25596C2.33908 0.813965 2.93802 0.564835 3.5631 0.562988V0.562988Z" stroke="#A2A2A2" stroke-linecap="round" stroke-linejoin="round"/>
<path d="M24.7961 2.92188L13.0041 11.1789L1.2041 2.92188" stroke="#A2A2A2" stroke-linecap="round" stroke-linejoin="round"/>
</svg>
