<svg width="23" height="24" viewBox="0 0 23 24" fill="none" xmlns="http://www.w3.org/2000/svg">
<path d="M3.4921 10.856H19.5041C19.8046 10.856 20.1021 10.9151 20.3797 11.0301C20.6573 11.1451 20.9095 11.3136 21.122 11.5261C21.3344 11.7386 21.503 11.9908 21.6179 12.2684C21.7329 12.546 21.7921 12.8435 21.7921 13.144V21.156C21.791 21.7621 21.5495 22.343 21.1206 22.7712C20.6916 23.1995 20.1102 23.44 19.5041 23.44H3.4921C2.88598 23.44 2.30462 23.1995 1.87565 22.7712C1.44669 22.343 1.20516 21.7621 1.2041 21.156V13.144C1.2041 12.5371 1.44516 11.9552 1.87424 11.5261C2.30332 11.097 2.88529 10.856 3.4921 10.856V10.856Z" stroke="#A2A2A2" stroke-linecap="round" stroke-linejoin="round"/>
<path d="M5.78027 10.8601V6.28006C5.78027 4.76302 6.38291 3.30812 7.45562 2.23541C8.52833 1.1627 9.98323 0.560059 11.5003 0.560059C13.0173 0.560059 14.4722 1.1627 15.5449 2.23541C16.6176 3.30812 17.2203 4.76302 17.2203 6.28006V10.8601" stroke="#A2A2A2" stroke-linecap="round" stroke-linejoin="round"/>
</svg>
